<svg id="svg697" width="600" height="900" version="1.1" viewBox="0 0 600 900" xmlns="http://www.w3.org/2000/svg">
 <path id="layer0" d="m0 900h600v-900h-600v900z" fill="#711542"/>
 <path id="layer1" d="m0 900h600v-698h-55v85h-54v-144h-55v90h-54v90h-55v-117h-54v-36h-55v-18h-54v108h-55v-29h-54v29h-55z" fill="#651543"/>
 <path id="layer2" d="m0 900h600v-465.95h-55v-39h-54v-198.05h-55v153h-54v99h-55v-117h-54v-18h-55v-81h-54v180h-55v-25h-54v-20h-55z" fill="#591643"/>
 <path id="layer3" d="m0 900h600v-301h-55v-78h-54v63h-55v82h-54v44h-55v-99h-54v9h-55v-126h-54v144h-55v-9h-54v-90h-55z" fill="#4d1642"/>
 <path id="layer4" d="m0 900h600v-181h-55v45h-54v18h-55v-63h-54v54h-109v-63h-55v-45h-54v72h-55v72h-54v-90h-55z" fill="#411640"/>
</svg>
